<?xml version="1.0" standalone="no"?>
<!DOCTYPE svg PUBLIC "-//W3C//DTD SVG 20010904//EN"
 "http://www.w3.org/TR/2001/REC-SVG-20010904/DTD/svg10.dtd">
<svg version="1.0" xmlns="http://www.w3.org/2000/svg"
 width="400.000000pt" height="500.000000pt" viewBox="0 0 400.000000 500.000000"
 preserveAspectRatio="xMidYMid meet">

<g transform="translate(0.000000,500.000000) scale(0.100000,-0.100000)"
fill="#000000" stroke="none">
<path d="M2728 4981 c-103 -8 -130 -23 -168 -96 -20 -39 -33 -51 -64 -62 -52
-17 -75 -39 -96 -89 -15 -34 -26 -44 -57 -54 -48 -16 -81 -45 -102 -90 -14
-32 -16 -171 -19 -1453 l-3 -1418 -127 6 c-196 10 -244 29 -287 115 l-26 50
-14 471 c-12 415 -16 474 -32 506 -31 63 -59 76 -180 84 -138 10 -813 10 -959
0 -129 -8 -153 -20 -194 -97 -20 -39 -33 -50 -67 -61 -50 -17 -90 -60 -99
-107 -5 -30 -10 -34 -46 -40 -27 -4 -52 -18 -73 -39 l-33 -33 -7 -156 c-4 -86
-5 -414 -2 -729 6 -633 6 -637 75 -826 82 -223 282 -417 546 -529 328 -139
659 -182 1316 -171 436 8 631 34 880 117 227 76 354 149 505 291 341 320 383
363 433 440 52 79 96 190 130 329 l26 105 4 1570 c2 864 1 1639 -3 1724 l-7
154 -38 40 -37 41 -109 7 c-127 9 -939 9 -1066 0z m1056 -10 l109 -7 37 -41
38 -40 7 -154 c4 -85 5 -856 3 -1714 l-4 -1560 -26 -105 c-34 -139 -78 -250
-130 -329 -50 -77 -92 -120 -433 -440 -151 -142 -278 -215 -505 -291 -247 -82
-445 -109 -870 -117 -645 -11 -979 32 -1306 171 -264 112 -464 306 -546 529
-69 189 -69 194 -75 815 -3 310 -2 634 2 720 l7 156 33 33 c21 21 46 35 73 39
36 6 41 10 46 40 9 47 49 90 99 107 34 11 47 22 67 61 41 77 65 89 194 97 146
10 801 10 939 0 121 -8 149 -21 180 -84 16 -32 20 -91 32 -506 l14 -471 26
-50 c44 -87 91 -105 297 -115 l137 -7 3 1419 c3 1282 5 1421 19 1453 21 45 54
74 102 90 31 10 42 20 57 54 21 50 44 72 96 89 31 11 44 23 64 62 38 73 65 88
168 96 127 9 919 9 1046 0z"/>
</g>
</svg>
